<?xml version="1.0" encoding="utf-8"?>
<!-- Generator: Adobe Illustrator 23.0.1, SVG Export Plug-In . SVG Version: 6.00 Build 0)  -->
<svg version="1.1" id="Layer_1" xmlns="http://www.w3.org/2000/svg" xmlns:xlink="http://www.w3.org/1999/xlink" x="0px" y="0px"
	 viewBox="0 0 560 360" style="enable-background:new 0 0 560 360;" xml:space="preserve">
<style type="text/css">
	.st0{fill:#4A25AA;}
	.st1{fill:#E31C79;}
	.st2{fill:#009CDE;}
	.st3{fill:#FFC845;}
	.st4{fill:#75787B;}
</style>
<g>
	<path class="st0" d="M52.83,272.07c-5.91,0-8.95-3.15-9.01-9.36H30c0.08,14.05,8.57,22.43,22.73,22.43
		c14.47,0,23.11-8.46,23.11-22.64v-38.84H61.65v38.84C61.65,268.85,58.68,272.07,52.83,272.07z"/>
	<rect x="101.54" y="223.66" class="st0" width="14.19" height="60.26"/>
	<path class="st0" d="M167.07,222.44c-16.11,0-25.73,9.44-25.73,25.26v36.22h14.19V247.7c0-7.98,3.99-12.2,11.54-12.2
		c7.55,0,11.54,4.22,11.54,12.2v36.22h14.19V247.7C192.8,231.88,183.18,222.44,167.07,222.44z"/>
	<polygon class="st0" points="232.5,236.72 261.81,236.72 261.81,223.66 218.31,223.66 218.31,283.92 232.5,283.92 232.5,259.38 
		256.38,259.38 256.38,247.26 232.5,247.26 	"/>
	<rect x="287.33" y="223.66" class="st0" width="14.18" height="60.26"/>
	<path class="st0" d="M352.76,235.5c7.55,0,11.54,4.22,11.54,12.2v36.22h14.19V247.7c0-15.82-9.62-25.26-25.73-25.26
		c-16.11,0-25.73,9.44-25.73,25.26v36.22h14.19V247.7C341.22,239.72,345.21,235.5,352.76,235.5z"/>
	<rect x="404.1" y="223.66" class="st0" width="14.18" height="60.26"/>
	<polygon class="st0" points="459.91,283.92 474.1,283.92 474.1,236.72 490.86,236.72 490.86,223.66 443.24,223.66 443.24,236.72 
		459.91,236.72 	"/>
	<rect x="515.82" y="223.66" class="st0" width="14.18" height="60.26"/>
	<path class="st0" d="M349.75,92.03c9.58-9.45,9.68-24.92,0.23-34.5c-9.45-9.58-24.92-9.68-34.5-0.23
		c-7.93,7.83-7.32,19.92-5.7,34.91l0.49,4.5l4.5,0.55C329.74,99.08,341.81,99.86,349.75,92.03z M323.51,65.43
		c5.09-5.03,13.32-4.97,18.35,0.12c5.02,5.09,4.97,13.33-0.12,18.35c-3.71,3.66-11.58,3.55-21.05,2.54
		C319.8,76.95,319.79,69.09,323.51,65.43z"/>
	<path class="st1" d="M300.68,110.94l-0.48-4.15l-0.12-0.02c-0.41-2.96-1-7.44-1.62-13.1c-0.33-3.03-0.68-6.3-0.9-9.7
		c-0.55-8.64-0.19-18.09,3.82-26.3l-9.13-7.23c-8.37,14.8-6.47,32.19-5.14,44.47c1.16,10.6,2.18,17.05,2.28,17.69l0.47,4.09
		l0.14,0.02c0.41,2.97,0.99,7.45,1.61,13.1c0.34,3.06,0.7,6.37,0.92,9.81c0.53,8.62,0.16,18.02-3.83,26.19
		c-1.04,2.15-2.33,4.2-3.92,6.13c-0.67,0.82-1.4,1.61-2.17,2.38c-0.23,0.23-0.47,0.46-0.7,0.68c-14.1,13.18-36.3,12.81-49.94-1.02
		c-11.53-11.69-13.37-29.37-5.57-42.97l-9.02-7.15c-11.29,18.1-9.16,42.3,6.47,58.14c18.28,18.53,48.25,18.74,66.79,0.45l0.3-0.3
		c2.84-2.87,5.11-5.92,6.9-9.1c8.37-14.8,6.47-32.2,5.13-44.48C301.83,118.29,300.83,111.9,300.68,110.94z"/>
	<path class="st2" d="M365.55,108.53l0.24-0.24c2.7-2.66,5.01-5.57,6.92-8.65c11.29-18.12,9.15-42.3-6.47-58.14
		c-18.29-18.54-48.25-18.74-66.79-0.45l-0.3,0.3l9.02,7.15c14.1-13.18,36.3-12.81,49.94,1.02c11.53,11.69,13.36,29.36,5.57,42.97
		c-1.57,2.75-3.55,5.34-5.92,7.67c-0.42,0.42-0.85,0.81-1.29,1.19c-12.47,10.99-30.25,8.82-43.34,7.21
		c-0.43-0.05-0.84-0.1-1.25-0.15l1.35,11.66C328.12,121.88,349.67,123.94,365.55,108.53z"/>
	<path class="st3" d="M276.92,114.92c0.43,0.05,0.84,0.1,1.26,0.16l-1.34-11.67c-14.88-1.81-36.43-3.87-52.31,11.55l9.06,7.17
		C246.05,111.15,263.83,113.32,276.92,114.92z"/>
	<path class="st0" d="M240.31,131.46c-9.58,9.45-9.68,24.92-0.23,34.5c9.45,9.58,24.92,9.68,34.5,0.23
		c7.93-7.83,7.32-19.91,5.7-34.9l-0.49-4.5l-4.5-0.55C260.33,124.4,248.25,123.63,240.31,131.46z M266.56,158.06
		c-5.09,5.03-13.33,4.97-18.35-0.12c-5.02-5.09-4.97-13.33,0.12-18.35c3.71-3.66,11.58-3.55,21.05-2.54
		C270.26,146.53,270.27,154.4,266.56,158.06z"/>
	<path class="st4" d="M111.19,309.26h-9.76v22.52h3.98v-8.12h5.78c4.25,0,7.1-2.84,7.1-7.07
		C118.29,312.34,115.3,309.26,111.19,309.26z M105.4,312.64h5.25c2.56,0,4.09,1.44,4.09,3.85c0,2.45-1.49,3.85-4.09,3.85h-5.25
		V312.64z"/>
	<path class="st4" d="M142.96,315.69c0-3.85-2.75-6.43-6.83-6.43H125v22.52h3.88v-9.09h5.82c3.21,0,3.82,1.11,3.82,3.15v5.93h3.88
		v-6.37c0-2.53-0.78-3.83-2.73-4.45C141.71,320.14,142.96,318.18,142.96,315.69z M128.87,312.64h6.68c2.36,0,3.65,1.19,3.65,3.35
		c0,2.18-1.38,3.39-3.89,3.39h-6.45V312.64z"/>
	<polygon class="st4" points="154.54,321.69 166.03,321.69 166.03,318.28 154.54,318.28 154.54,312.67 166.93,312.67 166.93,309.26 
		150.66,309.26 150.66,331.78 167.46,331.78 167.46,328.33 154.54,328.33 	"/>
	<path class="st4" d="M189.62,323.95c-0.52,3.37-2.41,5.08-5.62,5.08c-3.85,0-6.05-3.08-6.05-8.45c0-5.51,2.22-8.55,6.25-8.55
		c3.06,0,5.13,1.8,5.42,4.71l0.02,0.19h3.98l-0.02-0.23c-0.47-4.89-4.26-8.18-9.43-8.18c-6.33,0-10.26,4.7-10.26,12.26
		c0,7.14,4,11.76,10.2,11.76c4.95,0,8.5-3.19,9.49-8.53l0.05-0.25h-3.99L189.62,323.95z"/>
	<rect x="200.97" y="309.26" class="st4" width="3.98" height="22.52"/>
	<path class="st4" d="M221.99,318.67c-0.58-0.11-1.17-0.23-1.76-0.36c-2.72-0.59-3.83-1.52-3.83-3.23c0-2.58,2.46-3.12,4.52-3.12
		c3.32,0,4.92,1.28,5.05,4.03l0.01,0.2h3.77l0-0.21c-0.07-4.6-3.45-7.46-8.83-7.46c-4.98,0-8.2,2.56-8.2,6.53
		c0,4.78,2.96,6.07,10.03,7.33c3.09,0.57,3.72,1.74,3.72,3.32c0,2.19-1.88,3.56-4.92,3.56c-3.39,0-5.46-1.62-5.52-4.32l0-0.2h-3.85
		l0.01,0.22c0.17,5.04,3.47,7.59,9.8,7.59c4.92,0,8.36-2.8,8.36-6.8C230.35,320.3,226.29,319.51,221.99,318.67z"/>
	<rect x="237.79" y="309.26" class="st4" width="3.98" height="22.52"/>
	<path class="st4" d="M259.91,308.52c-6.63,0-10.59,4.56-10.59,12.19c0,7.52,3.86,11.83,10.59,11.83c6.77,0,10.5-4.17,10.5-11.73
		C270.4,313,266.58,308.52,259.91,308.52z M259.91,329.1c-4.35,0-6.65-2.86-6.65-8.28c0-5.62,2.36-8.71,6.65-8.71
		c4.22,0,6.55,3.09,6.55,8.71C266.46,326.08,264.07,329.1,259.91,329.1z"/>
	<polygon class="st4" points="291.86,324.84 281.79,309.35 281.73,309.26 277.61,309.26 277.61,331.78 281.36,331.78 281.36,315.71 
		291.99,331.78 295.61,331.78 295.61,309.26 291.86,309.26 	"/>
	<polygon class="st4" points="327.96,326.35 322.9,309.4 322.85,309.26 317.23,309.26 317.23,331.78 320.98,331.78 320.98,316.16 
		325.9,331.63 325.94,331.78 329.81,331.78 334.81,316.13 334.81,331.78 338.55,331.78 338.55,309.26 333.06,309.26 	"/>
	<polygon class="st4" points="350.61,321.69 362.09,321.69 362.09,318.28 350.61,318.28 350.61,312.67 362.99,312.67 362.99,309.26 
		346.73,309.26 346.73,331.78 363.52,331.78 363.52,328.33 350.61,328.33 	"/>
	<path class="st4" d="M379.46,309.26h-8.56v22.52h9.23c5.7,0,9.53-4.62,9.53-11.49C389.66,313.69,385.56,309.26,379.46,309.26z
		 M374.78,312.64H379c4.51,0,6.62,2.43,6.62,7.65c0,3.73-1.07,8.18-6.18,8.18h-4.65V312.64z"/>
	<rect x="396.2" y="309.26" class="st4" width="3.98" height="22.52"/>
	<path class="st4" d="M422.77,323.95c-0.52,3.37-2.41,5.08-5.62,5.08c-3.85,0-6.05-3.08-6.05-8.45c0-5.51,2.22-8.55,6.25-8.55
		c3.06,0,5.13,1.8,5.42,4.71l0.02,0.19h3.98l-0.02-0.23c-0.47-4.89-4.26-8.18-9.43-8.18c-6.33,0-10.26,4.7-10.26,12.26
		c0,7.14,4,11.76,10.19,11.76c4.95,0,8.5-3.19,9.49-8.53l0.05-0.25h-3.99L422.77,323.95z"/>
	<rect x="434.46" y="309.26" class="st4" width="3.98" height="22.52"/>
	<polygon class="st4" points="461.16,324.84 451.09,309.35 451.02,309.26 446.91,309.26 446.91,331.78 450.65,331.78 450.65,315.71 
		461.29,331.78 464.9,331.78 464.9,309.26 461.16,309.26 	"/>
	<polygon class="st4" points="476.59,321.69 488.07,321.69 488.07,318.28 476.59,318.28 476.59,312.67 488.97,312.67 488.97,309.26 
		472.71,309.26 472.71,331.78 489.51,331.78 489.51,328.33 476.59,328.33 	"/>
</g>
</svg>
