<?xml version="1.0" encoding="utf-8"?>
<!-- Generator: Adobe Illustrator 23.0.1, SVG Export Plug-In . SVG Version: 6.00 Build 0)  -->
<svg version="1.1" id="Layer_1" xmlns="http://www.w3.org/2000/svg" xmlns:xlink="http://www.w3.org/1999/xlink" x="0px" y="0px"
	 viewBox="0 0 560 170" style="enable-background:new 0 0 560 170;" xml:space="preserve">
<style type="text/css">
	.st0{fill:#4A25AA;}
	.st1{fill:#E31C79;}
	.st2{fill:#009CDE;}
	.st3{fill:#FFC845;}
	.st4{fill:#75787B;}
</style>
<g>
	<path class="st0" d="M133.33,70.4c7.09-7,7.17-18.46,0.17-25.55c-7-7.09-18.46-7.17-25.55-0.17c-5.88,5.8-5.42,14.75-4.22,25.85
		l0.36,3.33l3.33,0.41C118.5,75.62,127.45,76.19,133.33,70.4z M113.89,50.69c3.77-3.72,9.87-3.68,13.59,0.09s3.68,9.87-0.09,13.59
		c-2.75,2.71-8.57,2.63-15.59,1.88C111.15,59.23,111.14,53.41,113.89,50.69z"/>
	<path class="st1" d="M96.99,84.41l-0.36-3.07l-0.09-0.02c-0.31-2.19-0.74-5.51-1.2-9.7c-0.25-2.24-0.5-4.67-0.66-7.19
		c-0.41-6.4-0.14-13.4,2.83-19.48l-6.76-5.36c-6.2,10.96-4.79,23.84-3.81,32.94c0.86,7.85,1.61,12.63,1.69,13.1l0.35,3.03l0.1,0.02
		c0.3,2.2,0.73,5.52,1.19,9.7c0.25,2.27,0.52,4.72,0.68,7.27c0.39,6.39,0.12,13.35-2.83,19.39c-0.77,1.59-1.73,3.11-2.91,4.54
		c-0.49,0.6-1.04,1.19-1.61,1.76c-0.17,0.17-0.34,0.34-0.52,0.5c-10.44,9.76-26.89,9.48-36.99-0.76c-8.54-8.66-9.9-21.75-4.13-31.83
		l-6.68-5.3c-8.36,13.41-6.78,31.33,4.79,43.06c13.54,13.73,35.74,13.88,49.47,0.34l0.22-0.22c2.11-2.12,3.79-4.38,5.11-6.74
		c6.2-10.96,4.79-23.85,3.8-32.94C97.84,89.85,97.1,85.12,96.99,84.41z"/>
	<path class="st2" d="M145.54,32.97C132,19.24,109.81,19.09,96.07,32.64l-0.22,0.22l6.68,5.3c10.44-9.76,26.88-9.49,36.99,0.76
		c8.54,8.66,9.9,21.75,4.13,31.83c-1.17,2.04-2.63,3.96-4.38,5.68c-0.31,0.31-0.63,0.6-0.95,0.89c-9.24,8.14-22.4,6.53-32.1,5.34
		c-0.31-0.04-0.62-0.07-0.93-0.11l1,8.64c11.02,1.34,26.98,2.87,38.74-8.55l0.18-0.18c2-1.97,3.71-4.12,5.13-6.41
		C158.69,62.61,157.11,44.7,145.54,32.97z"/>
	<path class="st3" d="M79.38,87.35c0.32,0.03,0.62,0.07,0.94,0.12l-1-8.64c-11.02-1.34-26.98-2.87-38.74,8.56l6.71,5.31
		C56.53,84.56,69.69,86.17,79.38,87.35z"/>
	<path class="st0" d="M52.27,99.6c-7.09,7-7.17,18.46-0.17,25.55c7,7.09,18.46,7.17,25.55,0.17c5.88-5.8,5.42-14.75,4.22-25.85
		l-0.36-3.34l-3.33-0.41C67.1,94.38,58.15,93.8,52.27,99.6z M71.71,119.3c-3.77,3.72-9.87,3.68-13.59-0.09
		c-3.72-3.77-3.68-9.87,0.09-13.59c2.75-2.71,8.58-2.63,15.59-1.88C74.45,110.77,74.46,116.59,71.71,119.3z"/>
	<path class="st0" d="M190.56,92.71c10.24,0,16.36-5.99,16.36-16.03v-27.5h-10.03v27.5c0,4.51-2.11,6.8-6.27,6.8
		c-4.19,0-6.35-2.23-6.4-6.63h-9.76C174.53,86.78,180.54,92.71,190.56,92.71z"/>
	<rect x="225.15" y="49.18" class="st0" width="10.03" height="42.67"/>
	<path class="st0" d="M289.77,91.85V66.2c0-11.2-6.81-17.88-18.22-17.88c-11.41,0-18.21,6.69-18.21,17.88v25.65h10.03V66.2
		c0-5.66,2.83-8.65,8.19-8.65c5.36,0,8.19,2.99,8.19,8.65v25.65H289.77z"/>
	<polygon class="st0" points="307.88,91.85 317.9,91.85 317.9,74.47 334.82,74.47 334.82,65.9 317.9,65.9 317.9,58.41 338.67,58.41 
		338.67,49.18 307.88,49.18 	"/>
	<rect x="356.77" y="49.18" class="st0" width="10.03" height="42.67"/>
	<path class="st0" d="M411.3,66.2v25.65h10.03V66.2c0-11.2-6.81-17.88-18.22-17.88S384.9,55,384.9,66.2v25.65h10.03V66.2
		c0-5.66,2.83-8.65,8.19-8.65C408.47,57.55,411.3,60.54,411.3,66.2z"/>
	<rect x="439.49" y="49.18" class="st0" width="10.03" height="42.67"/>
	<polygon class="st0" points="489.06,91.85 489.06,58.41 500.93,58.41 500.93,49.18 467.22,49.18 467.22,58.41 479.03,58.41 
		479.03,91.85 	"/>
	<rect x="518.64" y="49.18" class="st0" width="10.02" height="42.67"/>
	<path class="st4" d="M135.93,110.35h-10.11v23.34h4.02v-8.46h6.09c4.39,0,7.33-2.93,7.33-7.3
		C143.26,113.54,140.18,110.35,135.93,110.35z M135.37,121.9h-5.54v-8.16h5.54c2.71,0,4.32,1.52,4.32,4.08
		C139.69,120.42,138.12,121.9,135.37,121.9z"/>
	<path class="st4" d="M168.96,116.99c0-3.97-2.84-6.64-7.06-6.64h-11.53v23.34h3.91v-9.47h6.13c3.38,0,4.04,1.23,4.04,3.35v6.12
		h3.91v-6.57c0-2.68-0.85-4.02-2.98-4.63C167.61,121.69,168.96,119.63,168.96,116.99z M161.07,120.9h-6.79v-7.15h7.03
		c2.5,0,3.87,1.26,3.87,3.56C165.19,119.62,163.73,120.9,161.07,120.9z"/>
	<polygon class="st4" points="181.03,123.18 193,123.18 193,119.75 181.03,119.75 181.03,113.78 193.93,113.78 193.93,110.35 
		177.12,110.35 177.12,133.69 194.49,133.69 194.49,130.23 181.03,130.23 	"/>
	<path class="st4" d="M217.7,125.61c-0.54,3.55-2.54,5.35-5.92,5.35c-4.05,0-6.37-3.23-6.37-8.87c0-5.78,2.33-8.97,6.58-8.97
		c3.22,0,5.41,1.9,5.71,4.96l0.01,0.14h4.02l-0.02-0.17c-0.49-5.06-4.41-8.46-9.76-8.46c-6.56,0-10.63,4.87-10.63,12.71
		c0,7.4,4.14,12.19,10.56,12.19c5.13,0,8.8-3.3,9.83-8.83l0.03-0.18h-4.03L217.7,125.61z"/>
	<rect x="229.53" y="110.35" class="st4" width="4.02" height="23.34"/>
	<path class="st4" d="M251.35,120.16c-0.61-0.12-1.22-0.24-1.83-0.37c-2.87-0.62-4.04-1.61-4.04-3.42c0-2.17,1.65-3.32,4.77-3.32
		c3.45,0,5.19,1.39,5.33,4.26l0.01,0.15h3.8l0-0.15c-0.07-4.76-3.57-7.71-9.14-7.71c-6.25,0-8.48,3.48-8.48,6.74
		c0,4.93,3.06,6.27,10.39,7.57c2.79,0.51,3.93,1.54,3.93,3.53c0,2.32-1.99,3.77-5.19,3.77c-3.57,0-5.75-1.71-5.81-4.57l0-0.15h-3.88
		l0,0.16c0.18,5.21,3.59,7.85,10.14,7.85c5.09,0,8.65-2.89,8.65-7.02C260.01,121.85,255.81,121.03,251.35,120.16z"/>
	<rect x="267.89" y="110.35" class="st4" width="4.02" height="23.34"/>
	<path class="st4" d="M290.87,109.59c-6.87,0-10.98,4.73-10.98,12.64c0,7.79,4,12.26,10.98,12.26c7.01,0,10.87-4.32,10.87-12.15
		C301.74,114.24,297.77,109.59,290.87,109.59z M290.87,131.03c-4.58,0-6.99-3.01-6.99-8.69c0-5.9,2.48-9.14,6.99-9.14
		c4.44,0,6.89,3.25,6.89,9.14C297.75,127.86,295.24,131.03,290.87,131.03z"/>
	<polygon class="st4" points="324.22,126.75 313.61,110.42 313.56,110.35 309.37,110.35 309.37,133.69 313.15,133.69 313.15,116.81 
		324.33,133.69 327.99,133.69 327.99,110.35 324.22,110.35 	"/>
	<polygon class="st4" points="361.76,128.32 356.43,110.46 356.4,110.35 350.65,110.35 350.65,133.69 354.42,133.69 354.42,117.07 
		359.67,133.58 359.71,133.69 363.64,133.69 368.96,117.03 368.96,133.69 372.74,133.69 372.74,110.35 367.13,110.35 	"/>
	<polygon class="st4" points="385.29,123.18 397.26,123.18 397.26,119.75 385.29,119.75 385.29,113.78 398.2,113.78 398.2,110.35 
		381.38,110.35 381.38,133.69 398.75,133.69 398.75,130.23 385.29,130.23 	"/>
	<path class="st4" d="M415.42,110.35h-8.86v23.34h9.55c5.9,0,9.87-4.79,9.87-11.91C425.98,114.95,421.74,110.35,415.42,110.35z
		 M415.39,130.37h-4.91v-16.62h4.46c4.75,0,6.96,2.55,6.96,8.03C421.89,127.4,419.64,130.37,415.39,130.37z"/>
	<rect x="432.92" y="110.35" class="st4" width="4.02" height="23.34"/>
	<path class="st4" d="M460.6,125.61c-0.54,3.55-2.54,5.35-5.92,5.35c-4.05,0-6.37-3.23-6.37-8.87c0-5.78,2.34-8.97,6.58-8.97
		c3.22,0,5.41,1.9,5.71,4.96l0.01,0.14h4.02l-0.02-0.17c-0.49-5.06-4.41-8.46-9.76-8.46c-6.56,0-10.63,4.87-10.63,12.71
		c0,7.4,4.14,12.19,10.56,12.19c5.13,0,8.8-3.3,9.83-8.83l0.03-0.18h-4.03L460.6,125.61z"/>
	<rect x="472.78" y="110.35" class="st4" width="4.02" height="23.34"/>
	<polygon class="st4" points="500.59,126.75 489.98,110.42 489.94,110.35 485.75,110.35 485.75,133.69 489.52,133.69 489.52,116.81 
		500.7,133.69 504.37,133.69 504.37,110.35 500.59,110.35 	"/>
	<polygon class="st4" points="516.54,130.23 516.54,123.18 528.51,123.18 528.51,119.75 516.54,119.75 516.54,113.78 529.44,113.78 
		529.44,110.35 512.63,110.35 512.63,133.69 530,133.69 530,130.23 	"/>
</g>
</svg>
